<?xml version="1.0" encoding="utf-8"?>
<svg xmlns="http://www.w3.org/2000/svg" xmlns:xlink="http://www.w3.org/1999/xlink" width="600" height="400" viewBox="0 0 2400 1600">
<defs>
  <clipPath id="clip770">
    <rect x="0" y="0" width="2400" height="1600"/>
  </clipPath>
</defs>
<path clip-path="url(#clip770)" d="
M0 1600 L2400 1600 L2400 0 L0 0  Z
  " fill="#ffffff" fill-rule="evenodd" fill-opacity="1"/>
<defs>
  <clipPath id="clip771">
    <rect x="480" y="0" width="1681" height="1600"/>
  </clipPath>
</defs>
<path clip-path="url(#clip770)" d="
M249.542 1414.54 L2352.76 1414.54 L2352.76 47.2441 L249.542 47.2441  Z
  " fill="#ffffff" fill-rule="evenodd" fill-opacity="1"/>
<defs>
  <clipPath id="clip772">
    <rect x="249" y="47" width="2104" height="1368"/>
  </clipPath>
</defs>
<polyline clip-path="url(#clip772)" style="stroke:#000000; stroke-linecap:round; stroke-linejoin:round; stroke-width:2; stroke-opacity:0.1; fill:none" points="
  249.542,1414.54 249.542,47.2441 
  "/>
<polyline clip-path="url(#clip772)" style="stroke:#000000; stroke-linecap:round; stroke-linejoin:round; stroke-width:2; stroke-opacity:0.1; fill:none" points="
  706.001,1414.54 706.001,47.2441 
  "/>
<polyline clip-path="url(#clip772)" style="stroke:#000000; stroke-linecap:round; stroke-linejoin:round; stroke-width:2; stroke-opacity:0.1; fill:none" points="
  1162.46,1414.54 1162.46,47.2441 
  "/>
<polyline clip-path="url(#clip772)" style="stroke:#000000; stroke-linecap:round; stroke-linejoin:round; stroke-width:2; stroke-opacity:0.1; fill:none" points="
  1618.92,1414.54 1618.92,47.2441 
  "/>
<polyline clip-path="url(#clip772)" style="stroke:#000000; stroke-linecap:round; stroke-linejoin:round; stroke-width:2; stroke-opacity:0.1; fill:none" points="
  2075.38,1414.54 2075.38,47.2441 
  "/>
<polyline clip-path="url(#clip770)" style="stroke:#000000; stroke-linecap:round; stroke-linejoin:round; stroke-width:4; stroke-opacity:1; fill:none" points="
  249.542,1414.54 2352.76,1414.54 
  "/>
<polyline clip-path="url(#clip770)" style="stroke:#000000; stroke-linecap:round; stroke-linejoin:round; stroke-width:4; stroke-opacity:1; fill:none" points="
  249.542,1414.54 249.542,1395.64 
  "/>
<polyline clip-path="url(#clip770)" style="stroke:#000000; stroke-linecap:round; stroke-linejoin:round; stroke-width:4; stroke-opacity:1; fill:none" points="
  706.001,1414.54 706.001,1395.64 
  "/>
<polyline clip-path="url(#clip770)" style="stroke:#000000; stroke-linecap:round; stroke-linejoin:round; stroke-width:4; stroke-opacity:1; fill:none" points="
  1162.46,1414.54 1162.46,1395.64 
  "/>
<polyline clip-path="url(#clip770)" style="stroke:#000000; stroke-linecap:round; stroke-linejoin:round; stroke-width:4; stroke-opacity:1; fill:none" points="
  1618.92,1414.54 1618.92,1395.64 
  "/>
<polyline clip-path="url(#clip770)" style="stroke:#000000; stroke-linecap:round; stroke-linejoin:round; stroke-width:4; stroke-opacity:1; fill:none" points="
  2075.38,1414.54 2075.38,1395.64 
  "/>
<path clip-path="url(#clip770)" d="M207.745 1482.82 L228.145 1482.82 L228.145 1487.74 L200.714 1487.74 L200.714 1482.82 Q204.042 1479.38 209.771 1473.59 Q215.529 1467.77 217.005 1466.1 Q219.811 1462.94 220.911 1460.77 Q222.039 1458.57 222.039 1456.46 Q222.039 1453.02 219.609 1450.85 Q217.207 1448.68 213.33 1448.68 Q210.581 1448.68 207.514 1449.63 Q204.476 1450.59 201.004 1452.53 L201.004 1446.62 Q204.534 1445.21 207.601 1444.48 Q210.668 1443.76 213.214 1443.76 Q219.927 1443.76 223.92 1447.12 Q227.913 1450.47 227.913 1456.08 Q227.913 1458.75 226.9 1461.15 Q225.917 1463.52 223.283 1466.76 Q222.56 1467.6 218.683 1471.62 Q214.806 1475.62 207.745 1482.82 Z" fill="#000000" fill-rule="evenodd" fill-opacity="1" /><path clip-path="url(#clip770)" d="M250.569 1448.82 Q249.122 1446.33 246.2 1446.33 Q243.278 1446.33 241.831 1448.82 Q240.355 1451.31 240.355 1456.29 Q240.355 1461.29 241.831 1463.78 Q243.278 1466.27 246.2 1466.27 Q249.122 1466.27 250.569 1463.78 Q252.045 1461.29 252.045 1456.29 Q252.045 1451.31 250.569 1448.82 M246.2 1443.76 Q250.859 1443.76 253.318 1446.97 Q255.778 1450.18 255.778 1456.29 Q255.778 1462.42 253.318 1465.63 Q250.859 1468.85 246.2 1468.85 Q241.513 1468.85 239.053 1465.63 Q236.594 1462.42 236.594 1456.29 Q236.594 1450.18 239.053 1446.97 Q241.513 1443.76 246.2 1443.76 Z" fill="#000000" fill-rule="evenodd" fill-opacity="1" /><path clip-path="url(#clip770)" d="M264.169 1463.49 L270.274 1463.49 L270.274 1470.84 L264.169 1470.84 L264.169 1463.49 Z" fill="#000000" fill-rule="evenodd" fill-opacity="1" /><path clip-path="url(#clip770)" d="M293.162 1448.82 Q291.715 1446.33 288.792 1446.33 Q285.87 1446.33 284.423 1448.82 Q282.948 1451.31 282.948 1456.29 Q282.948 1461.29 284.423 1463.78 Q285.87 1466.27 288.792 1466.27 Q291.715 1466.27 293.162 1463.78 Q294.637 1461.29 294.637 1456.29 Q294.637 1451.31 293.162 1448.82 M288.792 1443.76 Q293.451 1443.76 295.91 1446.97 Q298.37 1450.18 298.37 1456.29 Q298.37 1462.42 295.91 1465.63 Q293.451 1468.85 288.792 1468.85 Q284.105 1468.85 281.645 1465.63 Q279.186 1462.42 279.186 1456.29 Q279.186 1450.18 281.645 1446.97 Q284.105 1443.76 288.792 1443.76 Z" fill="#000000" fill-rule="evenodd" fill-opacity="1" /><path clip-path="url(#clip770)" d="M665.044 1482.82 L685.443 1482.82 L685.443 1487.74 L658.012 1487.74 L658.012 1482.82 Q661.34 1479.38 667.069 1473.59 Q672.827 1467.77 674.303 1466.1 Q677.11 1462.94 678.209 1460.77 Q679.338 1458.57 679.338 1456.46 Q679.338 1453.02 676.907 1450.85 Q674.505 1448.68 670.628 1448.68 Q667.879 1448.68 664.812 1449.63 Q661.774 1450.59 658.302 1452.53 L658.302 1446.62 Q661.832 1445.21 664.899 1444.48 Q667.966 1443.76 670.512 1443.76 Q677.225 1443.76 681.218 1447.12 Q685.211 1450.47 685.211 1456.08 Q685.211 1458.75 684.199 1461.15 Q683.215 1463.52 680.582 1466.76 Q679.858 1467.6 675.981 1471.62 Q672.104 1475.62 665.044 1482.82 Z" fill="#000000" fill-rule="evenodd" fill-opacity="1" /><path clip-path="url(#clip770)" d="M707.867 1448.82 Q706.421 1446.33 703.498 1446.33 Q700.576 1446.33 699.129 1448.82 Q697.653 1451.31 697.653 1456.29 Q697.653 1461.29 699.129 1463.78 Q700.576 1466.27 703.498 1466.27 Q706.421 1466.27 707.867 1463.78 Q709.343 1461.29 709.343 1456.29 Q709.343 1451.31 707.867 1448.82 M703.498 1443.76 Q708.157 1443.76 710.616 1446.97 Q713.076 1450.18 713.076 1456.29 Q713.076 1462.42 710.616 1465.63 Q708.157 1468.85 703.498 1468.85 Q698.811 1468.85 696.351 1465.63 Q693.892 1462.42 693.892 1456.29 Q693.892 1450.18 696.351 1446.97 Q698.811 1443.76 703.498 1443.76 Z" fill="#000000" fill-rule="evenodd" fill-opacity="1" /><path clip-path="url(#clip770)" d="M721.467 1463.49 L727.572 1463.49 L727.572 1470.84 L721.467 1470.84 L721.467 1463.49 Z" fill="#000000" fill-rule="evenodd" fill-opacity="1" /><path clip-path="url(#clip770)" d="M741.721 1465.11 L753.99 1465.11 L753.99 1468.41 L736.687 1468.41 L736.687 1465.23 Q737.671 1464.33 739.493 1462.71 Q749.447 1453.89 749.447 1451.17 Q749.447 1449.26 747.943 1448.1 Q746.438 1446.91 743.978 1446.91 Q742.474 1446.91 740.709 1447.43 Q738.944 1447.93 736.86 1448.94 L736.86 1445.38 Q739.088 1444.57 740.998 1444.16 Q742.937 1443.76 744.586 1443.76 Q748.782 1443.76 751.299 1445.67 Q753.816 1447.58 753.816 1450.7 Q753.816 1454.72 744.239 1462.94 Q742.618 1464.33 741.721 1465.11 Z" fill="#000000" fill-rule="evenodd" fill-opacity="1" /><path clip-path="url(#clip770)" d="M1120.58 1482.82 L1140.98 1482.82 L1140.98 1487.74 L1113.55 1487.74 L1113.55 1482.82 Q1116.87 1479.38 1122.6 1473.59 Q1128.36 1467.77 1129.84 1466.1 Q1132.64 1462.94 1133.74 1460.77 Q1134.87 1458.57 1134.87 1456.46 Q1134.87 1453.02 1132.44 1450.85 Q1130.04 1448.68 1126.16 1448.68 Q1123.41 1448.68 1120.35 1449.63 Q1117.31 1450.59 1113.84 1452.53 L1113.84 1446.62 Q1117.37 1445.21 1120.43 1444.48 Q1123.5 1443.76 1126.05 1443.76 Q1132.76 1443.76 1136.75 1447.12 Q1140.74 1450.47 1140.74 1456.08 Q1140.74 1458.75 1139.73 1461.15 Q1138.75 1463.52 1136.11 1466.76 Q1135.39 1467.6 1131.51 1471.62 Q1127.64 1475.62 1120.58 1482.82 Z" fill="#000000" fill-rule="evenodd" fill-opacity="1" /><path clip-path="url(#clip770)" d="M1163.4 1448.82 Q1161.95 1446.33 1159.03 1446.33 Q1156.11 1446.33 1154.66 1448.82 Q1153.19 1451.31 1153.19 1456.29 Q1153.19 1461.29 1154.66 1463.78 Q1156.11 1466.27 1159.03 1466.27 Q1161.95 1466.27 1163.4 1463.78 Q1164.88 1461.29 1164.88 1456.29 Q1164.88 1451.31 1163.4 1448.82 M1159.03 1443.76 Q1163.69 1443.76 1166.15 1446.97 Q1168.61 1450.18 1168.61 1456.29 Q1168.61 1462.42 1166.15 1465.63 Q1163.69 1468.85 1159.03 1468.85 Q1154.34 1468.85 1151.88 1465.63 Q1149.43 1462.42 1149.43 1456.29 Q1149.43 1450.18 1151.88 1446.97 Q1154.34 1443.76 1159.03 1443.76 Z" fill="#000000" fill-rule="evenodd" fill-opacity="1" /><path clip-path="url(#clip770)" d="M1177 1463.49 L1183.11 1463.49 L1183.11 1470.84 L1177 1470.84 L1177 1463.49 Z" fill="#000000" fill-rule="evenodd" fill-opacity="1" /><path clip-path="url(#clip770)" d="M1203.3 1447.75 L1194.36 1459.88 L1203.3 1459.88 L1203.3 1447.75 M1202.67 1444.25 L1207.47 1444.25 L1207.47 1459.88 L1211.38 1459.88 L1211.38 1463.03 L1207.47 1463.03 L1207.47 1468.41 L1203.3 1468.41 L1203.3 1463.03 L1191.32 1463.03 L1191.32 1459.53 L1202.67 1444.25 Z" fill="#000000" fill-rule="evenodd" fill-opacity="1" /><path clip-path="url(#clip770)" d="M1577.05 1482.82 L1597.45 1482.82 L1597.45 1487.74 L1570.02 1487.74 L1570.02 1482.82 Q1573.35 1479.38 1579.08 1473.59 Q1584.83 1467.77 1586.31 1466.1 Q1589.12 1462.94 1590.22 1460.77 Q1591.34 1458.57 1591.34 1456.46 Q1591.34 1453.02 1588.91 1450.85 Q1586.51 1448.68 1582.63 1448.68 Q1579.89 1448.68 1576.82 1449.63 Q1573.78 1450.59 1570.31 1452.53 L1570.31 1446.62 Q1573.84 1445.21 1576.91 1444.48 Q1579.97 1443.76 1582.52 1443.76 Q1589.23 1443.76 1593.23 1447.12 Q1597.22 1450.47 1597.22 1456.08 Q1597.22 1458.75 1596.21 1461.15 Q1595.22 1463.52 1592.59 1466.76 Q1591.87 1467.6 1587.99 1471.62 Q1584.11 1475.62 1577.05 1482.82 Z" fill="#000000" fill-rule="evenodd" fill-opacity="1" /><path clip-path="url(#clip770)" d="M1619.87 1448.82 Q1618.43 1446.33 1615.51 1446.33 Q1612.58 1446.33 1611.14 1448.82 Q1609.66 1451.31 1609.66 1456.29 Q1609.66 1461.29 1611.14 1463.78 Q1612.58 1466.27 1615.51 1466.27 Q1618.43 1466.27 1619.87 1463.78 Q1621.35 1461.29 1621.35 1456.29 Q1621.35 1451.31 1619.87 1448.82 M1615.51 1443.76 Q1620.16 1443.76 1622.62 1446.97 Q1625.08 1450.18 1625.08 1456.29 Q1625.08 1462.42 1622.62 1465.63 Q1620.16 1468.85 1615.51 1468.85 Q1610.82 1468.85 1608.36 1465.63 Q1605.9 1462.42 1605.9 1456.29 Q1605.9 1450.18 1608.36 1446.97 Q1610.82 1443.76 1615.51 1443.76 Z" fill="#000000" fill-rule="evenodd" fill-opacity="1" /><path clip-path="url(#clip770)" d="M1633.47 1463.49 L1639.58 1463.49 L1639.58 1470.84 L1633.47 1470.84 L1633.47 1463.49 Z" fill="#000000" fill-rule="evenodd" fill-opacity="1" /><path clip-path="url(#clip770)" d="M1658.56 1454.96 Q1656.01 1454.96 1654.54 1456.46 Q1653.06 1457.99 1653.06 1460.63 Q1653.06 1463.23 1654.54 1464.74 Q1656.01 1466.27 1658.56 1466.27 Q1661.08 1466.27 1662.55 1464.74 Q1664.03 1463.23 1664.03 1460.63 Q1664.03 1457.99 1662.55 1456.46 Q1661.08 1454.96 1658.56 1454.96 M1666.03 1444.71 L1666.03 1447.69 Q1664.61 1447.12 1663.16 1446.83 Q1661.71 1446.51 1660.3 1446.51 Q1656.59 1446.51 1654.63 1448.68 Q1652.66 1450.88 1652.37 1455.3 Q1653.47 1453.89 1655.12 1453.13 Q1656.8 1452.38 1658.76 1452.38 Q1662.96 1452.38 1665.39 1454.58 Q1667.82 1456.81 1667.82 1460.63 Q1667.82 1464.3 1665.27 1466.59 Q1662.76 1468.85 1658.56 1468.85 Q1653.73 1468.85 1651.18 1465.63 Q1648.64 1462.42 1648.64 1456.29 Q1648.64 1450.56 1651.76 1447.17 Q1654.89 1443.76 1660.15 1443.76 Q1661.57 1443.76 1663.02 1443.99 Q1664.46 1444.25 1666.03 1444.71 Z" fill="#000000" fill-rule="evenodd" fill-opacity="1" /><path clip-path="url(#clip770)" d="M2033.61 1482.82 L2054.01 1482.82 L2054.01 1487.74 L2026.58 1487.74 L2026.58 1482.82 Q2029.91 1479.38 2035.64 1473.59 Q2041.39 1467.77 2042.87 1466.1 Q2045.68 1462.94 2046.78 1460.77 Q2047.9 1458.57 2047.9 1456.46 Q2047.9 1453.02 2045.47 1450.85 Q2043.07 1448.68 2039.2 1448.68 Q2036.45 1448.68 2033.38 1449.63 Q2030.34 1450.59 2026.87 1452.53 L2026.87 1446.62 Q2030.4 1445.21 2033.47 1444.48 Q2036.53 1443.76 2039.08 1443.76 Q2045.79 1443.76 2049.79 1447.12 Q2053.78 1450.47 2053.78 1456.08 Q2053.78 1458.75 2052.77 1461.15 Q2051.78 1463.52 2049.15 1466.76 Q2048.43 1467.6 2044.55 1471.62 Q2040.67 1475.62 2033.61 1482.82 Z" fill="#000000" fill-rule="evenodd" fill-opacity="1" /><path clip-path="url(#clip770)" d="M2076.43 1448.82 Q2074.99 1446.33 2072.07 1446.33 Q2069.14 1446.33 2067.7 1448.82 Q2066.22 1451.31 2066.22 1456.29 Q2066.22 1461.29 2067.7 1463.78 Q2069.14 1466.27 2072.07 1466.27 Q2074.99 1466.27 2076.43 1463.78 Q2077.91 1461.29 2077.91 1456.29 Q2077.91 1451.31 2076.43 1448.82 M2072.07 1443.76 Q2076.72 1443.76 2079.18 1446.97 Q2081.64 1450.18 2081.64 1456.29 Q2081.64 1462.42 2079.18 1465.63 Q2076.72 1468.85 2072.07 1468.85 Q2067.38 1468.85 2064.92 1465.63 Q2062.46 1462.42 2062.46 1456.29 Q2062.46 1450.18 2064.92 1446.97 Q2067.38 1443.76 2072.07 1443.76 Z" fill="#000000" fill-rule="evenodd" fill-opacity="1" /><path clip-path="url(#clip770)" d="M2090.03 1463.49 L2096.14 1463.49 L2096.14 1470.84 L2090.03 1470.84 L2090.03 1463.49 Z" fill="#000000" fill-rule="evenodd" fill-opacity="1" /><path clip-path="url(#clip770)" d="M2118.88 1458.17 Q2117.35 1456.9 2114.66 1456.9 Q2111.97 1456.9 2110.43 1458.17 Q2108.9 1459.41 2108.9 1461.58 Q2108.9 1463.78 2110.43 1465.03 Q2111.97 1466.27 2114.66 1466.27 Q2117.32 1466.27 2118.88 1465 Q2120.42 1463.75 2120.42 1461.58 Q2120.42 1459.41 2118.88 1458.17 M2110.9 1455.48 Q2108.47 1454.96 2107.13 1453.54 Q2105.77 1452.09 2105.77 1450.01 Q2105.77 1447.12 2108.15 1445.44 Q2110.52 1443.76 2114.66 1443.76 Q2118.8 1443.76 2121.17 1445.44 Q2123.51 1447.12 2123.51 1450.01 Q2123.51 1452.15 2122.18 1453.54 Q2120.82 1454.96 2118.42 1455.48 Q2121.02 1456 2122.64 1457.68 Q2124.18 1459.27 2124.18 1461.58 Q2124.18 1465.08 2121.72 1466.96 Q2119.23 1468.85 2114.66 1468.85 Q2110.06 1468.85 2107.6 1466.96 Q2105.11 1465.08 2105.11 1461.58 Q2105.11 1459.33 2106.64 1457.68 Q2108.21 1456.06 2110.9 1455.48 M2109.51 1450.33 Q2109.51 1452.15 2110.87 1453.25 Q2112.2 1454.32 2114.66 1454.32 Q2117 1454.32 2118.42 1453.25 Q2119.81 1452.21 2119.81 1450.33 Q2119.81 1448.5 2118.42 1447.4 Q2117.06 1446.33 2114.66 1446.33 Q2112.26 1446.33 2110.87 1447.4 Q2109.51 1448.45 2109.51 1450.33 Z" fill="#000000" fill-rule="evenodd" fill-opacity="1" /><path clip-path="url(#clip770)" d="M659.343 1524.84 L665.836 1524.84 L675.83 1565.01 L685.792 1524.84 L693.017 1524.84 L703.011 1565.01 L712.974 1524.84 L719.498 1524.84 L707.563 1572.36 L699.478 1572.36 L689.452 1531.11 L679.331 1572.36 L671.246 1572.36 L659.343 1524.84 Z" fill="#000000" fill-rule="evenodd" fill-opacity="1" /><path clip-path="url(#clip770)" d="M726.342 1536.72 L732.198 1536.72 L732.198 1572.36 L726.342 1572.36 L726.342 1536.72 M726.342 1522.84 L732.198 1522.84 L732.198 1530.25 L726.342 1530.25 L726.342 1522.84 Z" fill="#000000" fill-rule="evenodd" fill-opacity="1" /><path clip-path="url(#clip770)" d="M750.245 1526.59 L750.245 1536.72 L762.308 1536.72 L762.308 1541.27 L750.245 1541.27 L750.245 1560.62 Q750.245 1564.98 751.422 1566.22 Q752.632 1567.46 756.292 1567.46 L762.308 1567.46 L762.308 1572.36 L756.292 1572.36 Q749.513 1572.36 746.935 1569.85 Q744.357 1567.3 744.357 1560.62 L744.357 1541.27 L740.06 1541.27 L740.06 1536.72 L744.357 1536.72 L744.357 1526.59 L750.245 1526.59 Z" fill="#000000" fill-rule="evenodd" fill-opacity="1" /><path clip-path="url(#clip770)" d="M799.643 1550.85 L799.643 1572.36 L793.786 1572.36 L793.786 1551.04 Q793.786 1545.98 791.813 1543.46 Q789.839 1540.95 785.893 1540.95 Q781.15 1540.95 778.413 1543.97 Q775.676 1547 775.676 1552.22 L775.676 1572.36 L769.788 1572.36 L769.788 1522.84 L775.676 1522.84 L775.676 1542.25 Q777.776 1539.04 780.609 1537.45 Q783.474 1535.86 787.198 1535.86 Q793.341 1535.86 796.492 1539.68 Q799.643 1543.46 799.643 1550.85 Z" fill="#000000" fill-rule="evenodd" fill-opacity="1" /><path clip-path="url(#clip770)" d="M811.324 1536.72 L817.18 1536.72 L817.18 1572.36 L811.324 1572.36 L811.324 1536.72 M811.324 1522.84 L817.18 1522.84 L817.18 1530.25 L811.324 1530.25 L811.324 1522.84 Z" fill="#000000" fill-rule="evenodd" fill-opacity="1" /><path clip-path="url(#clip770)" d="M859.067 1550.85 L859.067 1572.36 L853.21 1572.36 L853.21 1551.04 Q853.21 1545.98 851.237 1543.46 Q849.263 1540.95 845.317 1540.95 Q840.574 1540.95 837.837 1543.97 Q835.1 1547 835.1 1552.22 L835.1 1572.36 L829.211 1572.36 L829.211 1536.72 L835.1 1536.72 L835.1 1542.25 Q837.2 1539.04 840.033 1537.45 Q842.898 1535.86 846.622 1535.86 Q852.765 1535.86 855.916 1539.68 Q859.067 1543.46 859.067 1550.85 Z" fill="#000000" fill-rule="evenodd" fill-opacity="1" /><path clip-path="url(#clip770)" d="M897.261 1526.59 L897.261 1536.72 L909.324 1536.72 L909.324 1541.27 L897.261 1541.27 L897.261 1560.62 Q897.261 1564.98 898.438 1566.22 Q899.648 1567.46 903.308 1567.46 L909.324 1567.46 L909.324 1572.36 L903.308 1572.36 Q896.529 1572.36 893.951 1569.85 Q891.373 1567.3 891.373 1560.62 L891.373 1541.27 L887.076 1541.27 L887.076 1536.72 L891.373 1536.72 L891.373 1526.59 L897.261 1526.59 Z" fill="#000000" fill-rule="evenodd" fill-opacity="1" /><path clip-path="url(#clip770)" d="M946.659 1550.85 L946.659 1572.36 L940.802 1572.36 L940.802 1551.04 Q940.802 1545.98 938.829 1543.46 Q936.855 1540.95 932.909 1540.95 Q928.166 1540.95 925.429 1543.97 Q922.692 1547 922.692 1552.22 L922.692 1572.36 L916.804 1572.36 L916.804 1522.84 L922.692 1522.84 L922.692 1542.25 Q924.792 1539.04 927.625 1537.45 Q930.49 1535.86 934.214 1535.86 Q940.357 1535.86 943.508 1539.68 Q946.659 1543.46 946.659 1550.85 Z" fill="#000000" fill-rule="evenodd" fill-opacity="1" /><path clip-path="url(#clip770)" d="M958.34 1536.72 L964.196 1536.72 L964.196 1572.36 L958.34 1572.36 L958.34 1536.72 M958.34 1522.84 L964.196 1522.84 L964.196 1530.25 L958.34 1530.25 L958.34 1522.84 Z" fill="#000000" fill-rule="evenodd" fill-opacity="1" /><path clip-path="url(#clip770)" d="M999.176 1537.77 L999.176 1543.3 Q996.693 1542.03 994.02 1541.39 Q991.346 1540.76 988.481 1540.76 Q984.121 1540.76 981.925 1542.09 Q979.76 1543.43 979.76 1546.11 Q979.76 1548.14 981.32 1549.32 Q982.88 1550.47 987.59 1551.52 L989.595 1551.96 Q995.834 1553.3 998.444 1555.75 Q1001.09 1558.17 1001.09 1562.53 Q1001.09 1567.49 997.139 1570.39 Q993.224 1573.29 986.349 1573.29 Q983.484 1573.29 980.365 1572.71 Q977.278 1572.17 973.84 1571.06 L973.84 1565.01 Q977.087 1566.7 980.238 1567.56 Q983.389 1568.39 986.476 1568.39 Q990.614 1568.39 992.842 1566.98 Q995.07 1565.55 995.07 1562.97 Q995.07 1560.59 993.447 1559.31 Q991.855 1558.04 986.413 1556.86 L984.375 1556.39 Q978.933 1555.24 976.514 1552.88 Q974.095 1550.5 974.095 1546.36 Q974.095 1541.33 977.66 1538.59 Q981.224 1535.86 987.781 1535.86 Q991.028 1535.86 993.892 1536.33 Q996.757 1536.81 999.176 1537.77 Z" fill="#000000" fill-rule="evenodd" fill-opacity="1" /><path clip-path="url(#clip770)" d="M1049.18 1522.84 L1049.18 1527.71 L1043.58 1527.71 Q1040.43 1527.71 1039.18 1528.98 Q1037.97 1530.25 1037.97 1533.56 L1037.97 1536.72 L1047.62 1536.72 L1047.62 1541.27 L1037.97 1541.27 L1037.97 1572.36 L1032.09 1572.36 L1032.09 1541.27 L1026.48 1541.27 L1026.48 1536.72 L1032.09 1536.72 L1032.09 1534.23 Q1032.09 1528.28 1034.86 1525.58 Q1037.62 1522.84 1043.64 1522.84 L1049.18 1522.84 Z" fill="#000000" fill-rule="evenodd" fill-opacity="1" /><path clip-path="url(#clip770)" d="M1070.28 1554.44 Q1063.18 1554.44 1060.45 1556.07 Q1057.71 1557.69 1057.71 1561.61 Q1057.71 1564.72 1059.75 1566.57 Q1061.81 1568.39 1065.35 1568.39 Q1070.22 1568.39 1073.15 1564.95 Q1076.11 1561.48 1076.11 1555.75 L1076.11 1554.44 L1070.28 1554.44 M1081.96 1552.03 L1081.96 1572.36 L1076.11 1572.36 L1076.11 1566.95 Q1074.1 1570.2 1071.11 1571.76 Q1068.12 1573.29 1063.79 1573.29 Q1058.31 1573.29 1055.07 1570.23 Q1051.85 1567.14 1051.85 1561.99 Q1051.85 1555.97 1055.86 1552.92 Q1059.9 1549.86 1067.89 1549.86 L1076.11 1549.86 L1076.11 1549.29 Q1076.11 1545.25 1073.43 1543.05 Q1070.79 1540.82 1065.98 1540.82 Q1062.93 1540.82 1060.03 1541.55 Q1057.14 1542.29 1054.46 1543.75 L1054.46 1538.34 Q1057.68 1537.1 1060.7 1536.49 Q1063.72 1535.86 1066.59 1535.86 Q1074.32 1535.86 1078.14 1539.87 Q1081.96 1543.88 1081.96 1552.03 Z" fill="#000000" fill-rule="evenodd" fill-opacity="1" /><path clip-path="url(#clip770)" d="M1119.68 1538.08 L1119.68 1543.56 Q1117.2 1542.19 1114.68 1541.52 Q1112.2 1540.82 1109.65 1540.82 Q1103.96 1540.82 1100.8 1544.45 Q1097.65 1548.05 1097.65 1554.57 Q1097.65 1561.1 1100.8 1564.72 Q1103.96 1568.32 1109.65 1568.32 Q1112.2 1568.32 1114.68 1567.65 Q1117.2 1566.95 1119.68 1565.58 L1119.68 1571 Q1117.23 1572.14 1114.59 1572.71 Q1111.98 1573.29 1109.02 1573.29 Q1100.96 1573.29 1096.22 1568.23 Q1091.48 1563.17 1091.48 1554.57 Q1091.48 1545.85 1096.25 1540.85 Q1101.06 1535.86 1109.4 1535.86 Q1112.1 1535.86 1114.68 1536.43 Q1117.26 1536.97 1119.68 1538.08 Z" fill="#000000" fill-rule="evenodd" fill-opacity="1" /><path clip-path="url(#clip770)" d="M1135.66 1526.59 L1135.66 1536.72 L1147.72 1536.72 L1147.72 1541.27 L1135.66 1541.27 L1135.66 1560.62 Q1135.66 1564.98 1136.83 1566.22 Q1138.04 1567.46 1141.7 1567.46 L1147.72 1567.46 L1147.72 1572.36 L1141.7 1572.36 Q1134.92 1572.36 1132.35 1569.85 Q1129.77 1567.3 1129.77 1560.62 L1129.77 1541.27 L1125.47 1541.27 L1125.47 1536.72 L1129.77 1536.72 L1129.77 1526.59 L1135.66 1526.59 Z" fill="#000000" fill-rule="evenodd" fill-opacity="1" /><path clip-path="url(#clip770)" d="M1169.24 1540.82 Q1164.52 1540.82 1161.79 1544.51 Q1159.05 1548.17 1159.05 1554.57 Q1159.05 1560.97 1161.76 1564.66 Q1164.49 1568.32 1169.24 1568.32 Q1173.91 1568.32 1176.65 1564.63 Q1179.39 1560.94 1179.39 1554.57 Q1179.39 1548.24 1176.65 1544.55 Q1173.91 1540.82 1169.24 1540.82 M1169.24 1535.86 Q1176.87 1535.86 1181.23 1540.82 Q1185.6 1545.79 1185.6 1554.57 Q1185.6 1563.32 1181.23 1568.32 Q1176.87 1573.29 1169.24 1573.29 Q1161.56 1573.29 1157.2 1568.32 Q1152.88 1563.32 1152.88 1554.57 Q1152.88 1545.79 1157.2 1540.82 Q1161.56 1535.86 1169.24 1535.86 Z" fill="#000000" fill-rule="evenodd" fill-opacity="1" /><path clip-path="url(#clip770)" d="M1215.96 1542.19 Q1214.97 1541.62 1213.8 1541.36 Q1212.65 1541.08 1211.25 1541.08 Q1206.28 1541.08 1203.61 1544.32 Q1200.97 1547.54 1200.97 1553.59 L1200.97 1572.36 L1195.08 1572.36 L1195.08 1536.72 L1200.97 1536.72 L1200.97 1542.25 Q1202.81 1539.01 1205.77 1537.45 Q1208.73 1535.86 1212.97 1535.86 Q1213.57 1535.86 1214.3 1535.95 Q1215.04 1536.02 1215.93 1536.17 L1215.96 1542.19 Z" fill="#000000" fill-rule="evenodd" fill-opacity="1" /><path clip-path="url(#clip770)" d="M1256.64 1540.82 Q1251.93 1540.82 1249.19 1544.51 Q1246.45 1548.17 1246.45 1554.57 Q1246.45 1560.97 1249.16 1564.66 Q1251.89 1568.32 1256.64 1568.32 Q1261.32 1568.32 1264.05 1564.63 Q1266.79 1560.94 1266.79 1554.57 Q1266.79 1548.24 1264.05 1544.55 Q1261.32 1540.82 1256.64 1540.82 M1256.64 1535.86 Q1264.28 1535.86 1268.64 1540.82 Q1273 1545.79 1273 1554.57 Q1273 1563.32 1268.64 1568.32 Q1264.28 1573.29 1256.64 1573.29 Q1248.97 1573.29 1244.61 1568.32 Q1240.28 1563.32 1240.28 1554.57 Q1240.28 1545.79 1244.61 1540.82 Q1248.97 1535.86 1256.64 1535.86 Z" fill="#000000" fill-rule="evenodd" fill-opacity="1" /><path clip-path="url(#clip770)" d="M1300.75 1522.84 L1300.75 1527.71 L1295.15 1527.71 Q1292 1527.71 1290.76 1528.98 Q1289.55 1530.25 1289.55 1533.56 L1289.55 1536.72 L1299.19 1536.72 L1299.19 1541.27 L1289.55 1541.27 L1289.55 1572.36 L1283.66 1572.36 L1283.66 1541.27 L1278.06 1541.27 L1278.06 1536.72 L1283.66 1536.72 L1283.66 1534.23 Q1283.66 1528.28 1286.43 1525.58 Q1289.2 1522.84 1295.21 1522.84 L1300.75 1522.84 Z" fill="#000000" fill-rule="evenodd" fill-opacity="1" /><path clip-path="url(#clip770)" d="M1332.17 1526.59 L1332.17 1536.72 L1344.23 1536.72 L1344.23 1541.27 L1332.17 1541.27 L1332.17 1560.62 Q1332.17 1564.98 1333.34 1566.22 Q1334.55 1567.46 1338.21 1567.46 L1344.23 1567.46 L1344.23 1572.36 L1338.21 1572.36 Q1331.43 1572.36 1328.86 1569.85 Q1326.28 1567.3 1326.28 1560.62 L1326.28 1541.27 L1321.98 1541.27 L1321.98 1536.72 L1326.28 1536.72 L1326.28 1526.59 L1332.17 1526.59 Z" fill="#000000" fill-rule="evenodd" fill-opacity="1" /><path clip-path="url(#clip770)" d="M1381.56 1550.85 L1381.56 1572.36 L1375.71 1572.36 L1375.71 1551.04 Q1375.71 1545.98 1373.73 1543.46 Q1371.76 1540.95 1367.81 1540.95 Q1363.07 1540.95 1360.33 1543.97 Q1357.6 1547 1357.6 1552.22 L1357.6 1572.36 L1351.71 1572.36 L1351.71 1522.84 L1357.6 1522.84 L1357.6 1542.25 Q1359.7 1539.04 1362.53 1537.45 Q1365.39 1535.86 1369.12 1535.86 Q1375.26 1535.86 1378.41 1539.68 Q1381.56 1543.46 1381.56 1550.85 Z" fill="#000000" fill-rule="evenodd" fill-opacity="1" /><path clip-path="url(#clip770)" d="M1423.74 1553.08 L1423.74 1555.94 L1396.81 1555.94 Q1397.19 1561.99 1400.44 1565.17 Q1403.72 1568.32 1409.54 1568.32 Q1412.91 1568.32 1416.07 1567.49 Q1419.25 1566.67 1422.37 1565.01 L1422.37 1570.55 Q1419.22 1571.89 1415.91 1572.59 Q1412.6 1573.29 1409.19 1573.29 Q1400.66 1573.29 1395.66 1568.32 Q1390.7 1563.36 1390.7 1554.89 Q1390.7 1546.14 1395.41 1541.01 Q1400.15 1535.86 1408.17 1535.86 Q1415.37 1535.86 1419.54 1540.5 Q1423.74 1545.12 1423.74 1553.08 M1417.88 1551.36 Q1417.82 1546.55 1415.17 1543.69 Q1412.56 1540.82 1408.24 1540.82 Q1403.33 1540.82 1400.37 1543.59 Q1397.45 1546.36 1397 1551.39 L1417.88 1551.36 Z" fill="#000000" fill-rule="evenodd" fill-opacity="1" /><path clip-path="url(#clip770)" d="M1479.66 1554.57 Q1479.66 1548.11 1476.99 1544.45 Q1474.34 1540.76 1469.7 1540.76 Q1465.05 1540.76 1462.38 1544.45 Q1459.73 1548.11 1459.73 1554.57 Q1459.73 1561.03 1462.38 1564.72 Q1465.05 1568.39 1469.7 1568.39 Q1474.34 1568.39 1476.99 1564.72 Q1479.66 1561.03 1479.66 1554.57 M1459.73 1542.13 Q1461.58 1538.94 1464.38 1537.42 Q1467.21 1535.86 1471.13 1535.86 Q1477.62 1535.86 1481.66 1541.01 Q1485.74 1546.17 1485.74 1554.57 Q1485.74 1562.97 1481.66 1568.13 Q1477.62 1573.29 1471.13 1573.29 Q1467.21 1573.29 1464.38 1571.76 Q1461.58 1570.2 1459.73 1567.02 L1459.73 1572.36 L1453.85 1572.36 L1453.85 1522.84 L1459.73 1522.84 L1459.73 1542.13 Z" fill="#000000" fill-rule="evenodd" fill-opacity="1" /><path clip-path="url(#clip770)" d="M1525.94 1553.08 L1525.94 1555.94 L1499.01 1555.94 Q1499.39 1561.99 1502.64 1565.17 Q1505.92 1568.32 1511.74 1568.32 Q1515.12 1568.32 1518.27 1567.49 Q1521.45 1566.67 1524.57 1565.01 L1524.57 1570.55 Q1521.42 1571.89 1518.11 1572.59 Q1514.8 1573.29 1511.39 1573.29 Q1502.86 1573.29 1497.87 1568.32 Q1492.9 1563.36 1492.9 1554.89 Q1492.9 1546.14 1497.61 1541.01 Q1502.35 1535.86 1510.37 1535.86 Q1517.57 1535.86 1521.74 1540.5 Q1525.94 1545.12 1525.94 1553.08 M1520.08 1551.36 Q1520.02 1546.55 1517.38 1543.69 Q1514.77 1540.82 1510.44 1540.82 Q1505.54 1540.82 1502.58 1543.59 Q1499.65 1546.36 1499.2 1551.39 L1520.08 1551.36 Z" fill="#000000" fill-rule="evenodd" fill-opacity="1" /><path clip-path="url(#clip770)" d="M1558.28 1537.77 L1558.28 1543.3 Q1555.79 1542.03 1553.12 1541.39 Q1550.45 1540.76 1547.58 1540.76 Q1543.22 1540.76 1541.02 1542.09 Q1538.86 1543.43 1538.86 1546.11 Q1538.86 1548.14 1540.42 1549.32 Q1541.98 1550.47 1546.69 1551.52 L1548.7 1551.96 Q1554.93 1553.3 1557.54 1555.75 Q1560.19 1558.17 1560.19 1562.53 Q1560.19 1567.49 1556.24 1570.39 Q1552.32 1573.29 1545.45 1573.29 Q1542.58 1573.29 1539.47 1572.71 Q1536.38 1572.17 1532.94 1571.06 L1532.94 1565.01 Q1536.19 1566.7 1539.34 1567.56 Q1542.49 1568.39 1545.58 1568.39 Q1549.71 1568.39 1551.94 1566.98 Q1554.17 1565.55 1554.17 1562.97 Q1554.17 1560.59 1552.55 1559.31 Q1550.96 1558.04 1545.51 1556.86 L1543.48 1556.39 Q1538.03 1555.24 1535.61 1552.88 Q1533.19 1550.5 1533.19 1546.36 Q1533.19 1541.33 1536.76 1538.59 Q1540.32 1535.86 1546.88 1535.86 Q1550.13 1535.86 1552.99 1536.33 Q1555.86 1536.81 1558.28 1537.77 Z" fill="#000000" fill-rule="evenodd" fill-opacity="1" /><path clip-path="url(#clip770)" d="M1575.3 1526.59 L1575.3 1536.72 L1587.37 1536.72 L1587.37 1541.27 L1575.3 1541.27 L1575.3 1560.62 Q1575.3 1564.98 1576.48 1566.22 Q1577.69 1567.46 1581.35 1567.46 L1587.37 1567.46 L1587.37 1572.36 L1581.35 1572.36 Q1574.57 1572.36 1571.99 1569.85 Q1569.42 1567.3 1569.42 1560.62 L1569.42 1541.27 L1565.12 1541.27 L1565.12 1536.72 L1569.42 1536.72 L1569.42 1526.59 L1575.3 1526.59 Z" fill="#000000" fill-rule="evenodd" fill-opacity="1" /><path clip-path="url(#clip770)" d="M1629.86 1522.9 Q1625.59 1530.22 1623.52 1537.38 Q1621.46 1544.55 1621.46 1551.9 Q1621.46 1559.25 1623.52 1566.48 Q1625.62 1573.67 1629.86 1580.96 L1624.77 1580.96 Q1619.99 1573.48 1617.6 1566.25 Q1615.25 1559.03 1615.25 1551.9 Q1615.25 1544.8 1617.6 1537.61 Q1619.96 1530.41 1624.77 1522.9 L1629.86 1522.9 Z" fill="#000000" fill-rule="evenodd" fill-opacity="1" /><path clip-path="url(#clip770)" d="M1641.22 1522.84 L1647.08 1522.84 L1647.08 1572.36 L1641.22 1572.36 L1641.22 1522.84 Z" fill="#000000" fill-rule="evenodd" fill-opacity="1" /><path clip-path="url(#clip770)" d="M1673.14 1540.82 Q1668.43 1540.82 1665.7 1544.51 Q1662.96 1548.17 1662.96 1554.57 Q1662.96 1560.97 1665.67 1564.66 Q1668.4 1568.32 1673.14 1568.32 Q1677.82 1568.32 1680.56 1564.63 Q1683.3 1560.94 1683.3 1554.57 Q1683.3 1548.24 1680.56 1544.55 Q1677.82 1540.82 1673.14 1540.82 M1673.14 1535.86 Q1680.78 1535.86 1685.14 1540.82 Q1689.5 1545.79 1689.5 1554.57 Q1689.5 1563.32 1685.14 1568.32 Q1680.78 1573.29 1673.14 1573.29 Q1665.47 1573.29 1661.11 1568.32 Q1656.79 1563.32 1656.79 1554.57 Q1656.79 1545.79 1661.11 1540.82 Q1665.47 1535.86 1673.14 1535.86 Z" fill="#000000" fill-rule="evenodd" fill-opacity="1" /><path clip-path="url(#clip770)" d="M1722.67 1554.13 Q1722.67 1547.76 1720.03 1544.26 Q1717.42 1540.76 1712.68 1540.76 Q1707.97 1540.76 1705.32 1544.26 Q1702.71 1547.76 1702.71 1554.13 Q1702.71 1560.46 1705.32 1563.96 Q1707.97 1567.46 1712.68 1567.46 Q1717.42 1567.46 1720.03 1563.96 Q1722.67 1560.46 1722.67 1554.13 M1728.53 1567.94 Q1728.53 1577.04 1724.48 1581.47 Q1720.44 1585.92 1712.1 1585.92 Q1709.02 1585.92 1706.28 1585.45 Q1703.54 1585 1700.96 1584.04 L1700.96 1578.35 Q1703.54 1579.75 1706.06 1580.42 Q1708.57 1581.08 1711.18 1581.08 Q1716.94 1581.08 1719.81 1578.06 Q1722.67 1575.07 1722.67 1568.99 L1722.67 1566.09 Q1720.86 1569.24 1718.02 1570.8 Q1715.19 1572.36 1711.24 1572.36 Q1704.69 1572.36 1700.68 1567.37 Q1696.67 1562.37 1696.67 1554.13 Q1696.67 1545.85 1700.68 1540.85 Q1704.69 1535.86 1711.24 1535.86 Q1715.19 1535.86 1718.02 1537.42 Q1720.86 1538.98 1722.67 1542.13 L1722.67 1536.72 L1728.53 1536.72 L1728.53 1567.94 Z" fill="#000000" fill-rule="evenodd" fill-opacity="1" /><path clip-path="url(#clip770)" d="M1784.04 1537.77 L1784.04 1543.3 Q1781.55 1542.03 1778.88 1541.39 Q1776.21 1540.76 1773.34 1540.76 Q1768.98 1540.76 1766.78 1542.09 Q1764.62 1543.43 1764.62 1546.11 Q1764.62 1548.14 1766.18 1549.32 Q1767.74 1550.47 1772.45 1551.52 L1774.46 1551.96 Q1780.69 1553.3 1783.3 1555.75 Q1785.95 1558.17 1785.95 1562.53 Q1785.95 1567.49 1782 1570.39 Q1778.08 1573.29 1771.21 1573.29 Q1768.34 1573.29 1765.22 1572.71 Q1762.14 1572.17 1758.7 1571.06 L1758.7 1565.01 Q1761.95 1566.7 1765.1 1567.56 Q1768.25 1568.39 1771.34 1568.39 Q1775.47 1568.39 1777.7 1566.98 Q1779.93 1565.55 1779.93 1562.97 Q1779.93 1560.59 1778.31 1559.31 Q1776.71 1558.04 1771.27 1556.86 L1769.24 1556.39 Q1763.79 1555.24 1761.37 1552.88 Q1758.95 1550.5 1758.95 1546.36 Q1758.95 1541.33 1762.52 1538.59 Q1766.08 1535.86 1772.64 1535.86 Q1775.89 1535.86 1778.75 1536.33 Q1781.62 1536.81 1784.04 1537.77 Z" fill="#000000" fill-rule="evenodd" fill-opacity="1" /><path clip-path="url(#clip770)" d="M1820.92 1538.08 L1820.92 1543.56 Q1818.44 1542.19 1815.93 1541.52 Q1813.45 1540.82 1810.9 1540.82 Q1805.2 1540.82 1802.05 1544.45 Q1798.9 1548.05 1798.9 1554.57 Q1798.9 1561.1 1802.05 1564.72 Q1805.2 1568.32 1810.9 1568.32 Q1813.45 1568.32 1815.93 1567.65 Q1818.44 1566.95 1820.92 1565.58 L1820.92 1571 Q1818.47 1572.14 1815.83 1572.71 Q1813.22 1573.29 1810.26 1573.29 Q1802.21 1573.29 1797.47 1568.23 Q1792.72 1563.17 1792.72 1554.57 Q1792.72 1545.85 1797.5 1540.85 Q1802.31 1535.86 1810.64 1535.86 Q1813.35 1535.86 1815.93 1536.43 Q1818.51 1536.97 1820.92 1538.08 Z" fill="#000000" fill-rule="evenodd" fill-opacity="1" /><path clip-path="url(#clip770)" d="M1847.31 1554.44 Q1840.21 1554.44 1837.48 1556.07 Q1834.74 1557.69 1834.74 1561.61 Q1834.74 1564.72 1836.78 1566.57 Q1838.84 1568.39 1842.38 1568.39 Q1847.25 1568.39 1850.18 1564.95 Q1853.14 1561.48 1853.14 1555.75 L1853.14 1554.44 L1847.31 1554.44 M1858.99 1552.03 L1858.99 1572.36 L1853.14 1572.36 L1853.14 1566.95 Q1851.13 1570.2 1848.14 1571.76 Q1845.15 1573.29 1840.82 1573.29 Q1835.34 1573.29 1832.1 1570.23 Q1828.88 1567.14 1828.88 1561.99 Q1828.88 1555.97 1832.89 1552.92 Q1836.93 1549.86 1844.92 1549.86 L1853.14 1549.86 L1853.14 1549.29 Q1853.14 1545.25 1850.46 1543.05 Q1847.82 1540.82 1843.01 1540.82 Q1839.96 1540.82 1837.06 1541.55 Q1834.17 1542.29 1831.49 1543.75 L1831.49 1538.34 Q1834.71 1537.1 1837.73 1536.49 Q1840.75 1535.86 1843.62 1535.86 Q1851.35 1535.86 1855.17 1539.87 Q1858.99 1543.88 1858.99 1552.03 Z" fill="#000000" fill-rule="evenodd" fill-opacity="1" /><path clip-path="url(#clip770)" d="M1871.05 1522.84 L1876.91 1522.84 L1876.91 1572.36 L1871.05 1572.36 L1871.05 1522.84 Z" fill="#000000" fill-rule="evenodd" fill-opacity="1" /><path clip-path="url(#clip770)" d="M1919.66 1553.08 L1919.66 1555.94 L1892.73 1555.94 Q1893.11 1561.99 1896.36 1565.17 Q1899.64 1568.32 1905.46 1568.32 Q1908.84 1568.32 1911.99 1567.49 Q1915.17 1566.67 1918.29 1565.01 L1918.29 1570.55 Q1915.14 1571.89 1911.83 1572.59 Q1908.52 1573.29 1905.11 1573.29 Q1896.58 1573.29 1891.58 1568.32 Q1886.62 1563.36 1886.62 1554.89 Q1886.62 1546.14 1891.33 1541.01 Q1896.07 1535.86 1904.09 1535.86 Q1911.29 1535.86 1915.46 1540.5 Q1919.66 1545.12 1919.66 1553.08 M1913.8 1551.36 Q1913.74 1546.55 1911.1 1543.69 Q1908.49 1540.82 1904.16 1540.82 Q1899.25 1540.82 1896.29 1543.59 Q1893.37 1546.36 1892.92 1551.39 L1913.8 1551.36 Z" fill="#000000" fill-rule="evenodd" fill-opacity="1" /><path clip-path="url(#clip770)" d="M1928.35 1522.9 L1933.44 1522.9 Q1938.21 1530.41 1940.57 1537.61 Q1942.96 1544.8 1942.96 1551.9 Q1942.96 1559.03 1940.57 1566.25 Q1938.21 1573.48 1933.44 1580.96 L1928.35 1580.96 Q1932.58 1573.67 1934.65 1566.48 Q1936.75 1559.25 1936.75 1551.9 Q1936.75 1544.55 1934.65 1537.38 Q1932.58 1530.22 1928.35 1522.9 Z" fill="#000000" fill-rule="evenodd" fill-opacity="1" /><polyline clip-path="url(#clip772)" style="stroke:#000000; stroke-linecap:round; stroke-linejoin:round; stroke-width:2; stroke-opacity:0.1; fill:none" points="
  249.542,1414.54 2352.76,1414.54 
  "/>
<polyline clip-path="url(#clip772)" style="stroke:#000000; stroke-linecap:round; stroke-linejoin:round; stroke-width:2; stroke-opacity:0.1; fill:none" points="
  249.542,1103.79 2352.76,1103.79 
  "/>
<polyline clip-path="url(#clip772)" style="stroke:#000000; stroke-linecap:round; stroke-linejoin:round; stroke-width:2; stroke-opacity:0.1; fill:none" points="
  249.542,793.042 2352.76,793.042 
  "/>
<polyline clip-path="url(#clip772)" style="stroke:#000000; stroke-linecap:round; stroke-linejoin:round; stroke-width:2; stroke-opacity:0.1; fill:none" points="
  249.542,482.293 2352.76,482.293 
  "/>
<polyline clip-path="url(#clip772)" style="stroke:#000000; stroke-linecap:round; stroke-linejoin:round; stroke-width:2; stroke-opacity:0.1; fill:none" points="
  249.542,171.544 2352.76,171.544 
  "/>
<polyline clip-path="url(#clip770)" style="stroke:#000000; stroke-linecap:round; stroke-linejoin:round; stroke-width:4; stroke-opacity:1; fill:none" points="
  249.542,1414.54 249.542,47.2441 
  "/>
<polyline clip-path="url(#clip770)" style="stroke:#000000; stroke-linecap:round; stroke-linejoin:round; stroke-width:4; stroke-opacity:1; fill:none" points="
  249.542,1414.54 268.44,1414.54 
  "/>
<polyline clip-path="url(#clip770)" style="stroke:#000000; stroke-linecap:round; stroke-linejoin:round; stroke-width:4; stroke-opacity:1; fill:none" points="
  249.542,1103.79 268.44,1103.79 
  "/>
<polyline clip-path="url(#clip770)" style="stroke:#000000; stroke-linecap:round; stroke-linejoin:round; stroke-width:4; stroke-opacity:1; fill:none" points="
  249.542,793.042 268.44,793.042 
  "/>
<polyline clip-path="url(#clip770)" style="stroke:#000000; stroke-linecap:round; stroke-linejoin:round; stroke-width:4; stroke-opacity:1; fill:none" points="
  249.542,482.293 268.44,482.293 
  "/>
<polyline clip-path="url(#clip770)" style="stroke:#000000; stroke-linecap:round; stroke-linejoin:round; stroke-width:4; stroke-opacity:1; fill:none" points="
  249.542,171.544 268.44,171.544 
  "/>
<path clip-path="url(#clip770)" d="M126.205 1400.34 Q122.593 1400.34 120.765 1403.9 Q118.959 1407.44 118.959 1414.57 Q118.959 1421.68 120.765 1425.25 Q122.593 1428.79 126.205 1428.79 Q129.839 1428.79 131.644 1425.25 Q133.473 1421.68 133.473 1414.57 Q133.473 1407.44 131.644 1403.9 Q129.839 1400.34 126.205 1400.34 M126.205 1396.63 Q132.015 1396.63 135.07 1401.24 Q138.149 1405.82 138.149 1414.57 Q138.149 1423.3 135.07 1427.91 Q132.015 1432.49 126.205 1432.49 Q120.394 1432.49 117.316 1427.91 Q114.26 1423.3 114.26 1414.57 Q114.26 1405.82 117.316 1401.24 Q120.394 1396.63 126.205 1396.63 Z" fill="#000000" fill-rule="evenodd" fill-opacity="1" /><path clip-path="url(#clip770)" d="M146.366 1425.94 L151.251 1425.94 L151.251 1431.82 L146.366 1431.82 L146.366 1425.94 Z" fill="#000000" fill-rule="evenodd" fill-opacity="1" /><path clip-path="url(#clip770)" d="M171.436 1400.34 Q167.825 1400.34 165.996 1403.9 Q164.19 1407.44 164.19 1414.57 Q164.19 1421.68 165.996 1425.25 Q167.825 1428.79 171.436 1428.79 Q175.07 1428.79 176.876 1425.25 Q178.704 1421.68 178.704 1414.57 Q178.704 1407.44 176.876 1403.9 Q175.07 1400.34 171.436 1400.34 M171.436 1396.63 Q177.246 1396.63 180.301 1401.24 Q183.38 1405.82 183.38 1414.57 Q183.38 1423.3 180.301 1427.91 Q177.246 1432.49 171.436 1432.49 Q165.626 1432.49 162.547 1427.91 Q159.491 1423.3 159.491 1414.57 Q159.491 1405.82 162.547 1401.24 Q165.626 1396.63 171.436 1396.63 Z" fill="#000000" fill-rule="evenodd" fill-opacity="1" /><path clip-path="url(#clip770)" d="M201.598 1400.34 Q197.987 1400.34 196.158 1403.9 Q194.352 1407.44 194.352 1414.57 Q194.352 1421.68 196.158 1425.25 Q197.987 1428.79 201.598 1428.79 Q205.232 1428.79 207.037 1425.25 Q208.866 1421.68 208.866 1414.57 Q208.866 1407.44 207.037 1403.9 Q205.232 1400.34 201.598 1400.34 M201.598 1396.63 Q207.408 1396.63 210.463 1401.24 Q213.542 1405.82 213.542 1414.57 Q213.542 1423.3 210.463 1427.91 Q207.408 1432.49 201.598 1432.49 Q195.787 1432.49 192.709 1427.91 Q189.653 1423.3 189.653 1414.57 Q189.653 1405.82 192.709 1401.24 Q195.787 1396.63 201.598 1396.63 Z" fill="#000000" fill-rule="evenodd" fill-opacity="1" /><path clip-path="url(#clip770)" d="M127.2 1089.59 Q123.589 1089.59 121.76 1093.15 Q119.955 1096.7 119.955 1103.83 Q119.955 1110.93 121.76 1114.5 Q123.589 1118.04 127.2 1118.04 Q130.834 1118.04 132.64 1114.5 Q134.468 1110.93 134.468 1103.83 Q134.468 1096.7 132.64 1093.15 Q130.834 1089.59 127.2 1089.59 M127.2 1085.89 Q133.01 1085.89 136.066 1090.49 Q139.144 1095.08 139.144 1103.83 Q139.144 1112.55 136.066 1117.16 Q133.01 1121.74 127.2 1121.74 Q121.39 1121.74 118.311 1117.16 Q115.256 1112.55 115.256 1103.83 Q115.256 1095.08 118.311 1090.49 Q121.39 1085.89 127.2 1085.89 Z" fill="#000000" fill-rule="evenodd" fill-opacity="1" /><path clip-path="url(#clip770)" d="M147.362 1115.19 L152.246 1115.19 L152.246 1121.07 L147.362 1121.07 L147.362 1115.19 Z" fill="#000000" fill-rule="evenodd" fill-opacity="1" /><path clip-path="url(#clip770)" d="M166.459 1117.14 L182.778 1117.14 L182.778 1121.07 L160.834 1121.07 L160.834 1117.14 Q163.496 1114.38 168.079 1109.75 Q172.686 1105.1 173.866 1103.76 Q176.112 1101.23 176.991 1099.5 Q177.894 1097.74 177.894 1096.05 Q177.894 1093.29 175.95 1091.56 Q174.028 1089.82 170.927 1089.82 Q168.727 1089.82 166.274 1090.58 Q163.843 1091.35 161.065 1092.9 L161.065 1088.18 Q163.89 1087.04 166.343 1086.46 Q168.797 1085.89 170.834 1085.89 Q176.204 1085.89 179.399 1088.57 Q182.593 1091.26 182.593 1095.75 Q182.593 1097.88 181.783 1099.8 Q180.996 1101.7 178.889 1104.29 Q178.311 1104.96 175.209 1108.18 Q172.107 1111.37 166.459 1117.14 Z" fill="#000000" fill-rule="evenodd" fill-opacity="1" /><path clip-path="url(#clip770)" d="M192.639 1086.51 L210.996 1086.51 L210.996 1090.45 L196.922 1090.45 L196.922 1098.92 Q197.94 1098.57 198.959 1098.41 Q199.977 1098.22 200.996 1098.22 Q206.783 1098.22 210.162 1101.39 Q213.542 1104.57 213.542 1109.98 Q213.542 1115.56 210.07 1118.66 Q206.598 1121.74 200.278 1121.74 Q198.102 1121.74 195.834 1121.37 Q193.588 1121 191.181 1120.26 L191.181 1115.56 Q193.264 1116.7 195.487 1117.25 Q197.709 1117.81 200.186 1117.81 Q204.19 1117.81 206.528 1115.7 Q208.866 1113.59 208.866 1109.98 Q208.866 1106.37 206.528 1104.27 Q204.19 1102.16 200.186 1102.16 Q198.311 1102.16 196.436 1102.58 Q194.584 1102.99 192.639 1103.87 L192.639 1086.51 Z" fill="#000000" fill-rule="evenodd" fill-opacity="1" /><path clip-path="url(#clip770)" d="M126.205 778.84 Q122.593 778.84 120.765 782.405 Q118.959 785.947 118.959 793.076 Q118.959 800.183 120.765 803.748 Q122.593 807.289 126.205 807.289 Q129.839 807.289 131.644 803.748 Q133.473 800.183 133.473 793.076 Q133.473 785.947 131.644 782.405 Q129.839 778.84 126.205 778.84 M126.205 775.137 Q132.015 775.137 135.07 779.743 Q138.149 784.327 138.149 793.076 Q138.149 801.803 135.07 806.41 Q132.015 810.993 126.205 810.993 Q120.394 810.993 117.316 806.41 Q114.26 801.803 114.26 793.076 Q114.26 784.327 117.316 779.743 Q120.394 775.137 126.205 775.137 Z" fill="#000000" fill-rule="evenodd" fill-opacity="1" /><path clip-path="url(#clip770)" d="M146.366 804.442 L151.251 804.442 L151.251 810.322 L146.366 810.322 L146.366 804.442 Z" fill="#000000" fill-rule="evenodd" fill-opacity="1" /><path clip-path="url(#clip770)" d="M161.482 775.762 L179.839 775.762 L179.839 779.697 L165.765 779.697 L165.765 788.169 Q166.783 787.822 167.802 787.66 Q168.82 787.475 169.839 787.475 Q175.626 787.475 179.005 790.646 Q182.385 793.817 182.385 799.234 Q182.385 804.813 178.913 807.914 Q175.44 810.993 169.121 810.993 Q166.945 810.993 164.677 810.623 Q162.431 810.252 160.024 809.512 L160.024 804.813 Q162.107 805.947 164.329 806.502 Q166.552 807.058 169.028 807.058 Q173.033 807.058 175.371 804.951 Q177.709 802.845 177.709 799.234 Q177.709 795.623 175.371 793.516 Q173.033 791.41 169.028 791.41 Q167.153 791.41 165.278 791.827 Q163.427 792.243 161.482 793.123 L161.482 775.762 Z" fill="#000000" fill-rule="evenodd" fill-opacity="1" /><path clip-path="url(#clip770)" d="M201.598 778.84 Q197.987 778.84 196.158 782.405 Q194.352 785.947 194.352 793.076 Q194.352 800.183 196.158 803.748 Q197.987 807.289 201.598 807.289 Q205.232 807.289 207.037 803.748 Q208.866 800.183 208.866 793.076 Q208.866 785.947 207.037 782.405 Q205.232 778.84 201.598 778.84 M201.598 775.137 Q207.408 775.137 210.463 779.743 Q213.542 784.327 213.542 793.076 Q213.542 801.803 210.463 806.41 Q207.408 810.993 201.598 810.993 Q195.787 810.993 192.709 806.41 Q189.653 801.803 189.653 793.076 Q189.653 784.327 192.709 779.743 Q195.787 775.137 201.598 775.137 Z" fill="#000000" fill-rule="evenodd" fill-opacity="1" /><path clip-path="url(#clip770)" d="M127.2 468.091 Q123.589 468.091 121.76 471.656 Q119.955 475.198 119.955 482.327 Q119.955 489.434 121.76 492.999 Q123.589 496.54 127.2 496.54 Q130.834 496.54 132.64 492.999 Q134.468 489.434 134.468 482.327 Q134.468 475.198 132.64 471.656 Q130.834 468.091 127.2 468.091 M127.2 464.388 Q133.01 464.388 136.066 468.994 Q139.144 473.578 139.144 482.327 Q139.144 491.054 136.066 495.661 Q133.01 500.244 127.2 500.244 Q121.39 500.244 118.311 495.661 Q115.256 491.054 115.256 482.327 Q115.256 473.578 118.311 468.994 Q121.39 464.388 127.2 464.388 Z" fill="#000000" fill-rule="evenodd" fill-opacity="1" /><path clip-path="url(#clip770)" d="M147.362 493.693 L152.246 493.693 L152.246 499.573 L147.362 499.573 L147.362 493.693 Z" fill="#000000" fill-rule="evenodd" fill-opacity="1" /><path clip-path="url(#clip770)" d="M161.251 465.013 L183.473 465.013 L183.473 467.003 L170.927 499.573 L166.042 499.573 L177.848 468.948 L161.251 468.948 L161.251 465.013 Z" fill="#000000" fill-rule="evenodd" fill-opacity="1" /><path clip-path="url(#clip770)" d="M192.639 465.013 L210.996 465.013 L210.996 468.948 L196.922 468.948 L196.922 477.42 Q197.94 477.073 198.959 476.911 Q199.977 476.726 200.996 476.726 Q206.783 476.726 210.162 479.897 Q213.542 483.068 213.542 488.485 Q213.542 494.064 210.07 497.165 Q206.598 500.244 200.278 500.244 Q198.102 500.244 195.834 499.874 Q193.588 499.503 191.181 498.763 L191.181 494.064 Q193.264 495.198 195.487 495.753 Q197.709 496.309 200.186 496.309 Q204.19 496.309 206.528 494.202 Q208.866 492.096 208.866 488.485 Q208.866 484.874 206.528 482.767 Q204.19 480.661 200.186 480.661 Q198.311 480.661 196.436 481.077 Q194.584 481.494 192.639 482.374 L192.639 465.013 Z" fill="#000000" fill-rule="evenodd" fill-opacity="1" /><path clip-path="url(#clip770)" d="M117.015 184.889 L124.654 184.889 L124.654 158.523 L116.343 160.19 L116.343 155.93 L124.607 154.264 L129.283 154.264 L129.283 184.889 L136.922 184.889 L136.922 188.824 L117.015 188.824 L117.015 184.889 Z" fill="#000000" fill-rule="evenodd" fill-opacity="1" /><path clip-path="url(#clip770)" d="M146.366 182.944 L151.251 182.944 L151.251 188.824 L146.366 188.824 L146.366 182.944 Z" fill="#000000" fill-rule="evenodd" fill-opacity="1" /><path clip-path="url(#clip770)" d="M171.436 157.342 Q167.825 157.342 165.996 160.907 Q164.19 164.449 164.19 171.578 Q164.19 178.685 165.996 182.25 Q167.825 185.791 171.436 185.791 Q175.07 185.791 176.876 182.25 Q178.704 178.685 178.704 171.578 Q178.704 164.449 176.876 160.907 Q175.07 157.342 171.436 157.342 M171.436 153.639 Q177.246 153.639 180.301 158.245 Q183.38 162.828 183.38 171.578 Q183.38 180.305 180.301 184.912 Q177.246 189.495 171.436 189.495 Q165.626 189.495 162.547 184.912 Q159.491 180.305 159.491 171.578 Q159.491 162.828 162.547 158.245 Q165.626 153.639 171.436 153.639 Z" fill="#000000" fill-rule="evenodd" fill-opacity="1" /><path clip-path="url(#clip770)" d="M201.598 157.342 Q197.987 157.342 196.158 160.907 Q194.352 164.449 194.352 171.578 Q194.352 178.685 196.158 182.25 Q197.987 185.791 201.598 185.791 Q205.232 185.791 207.037 182.25 Q208.866 178.685 208.866 171.578 Q208.866 164.449 207.037 160.907 Q205.232 157.342 201.598 157.342 M201.598 153.639 Q207.408 153.639 210.463 158.245 Q213.542 162.828 213.542 171.578 Q213.542 180.305 210.463 184.912 Q207.408 189.495 201.598 189.495 Q195.787 189.495 192.709 184.912 Q189.653 180.305 189.653 171.578 Q189.653 162.828 192.709 158.245 Q195.787 153.639 201.598 153.639 Z" fill="#000000" fill-rule="evenodd" fill-opacity="1" /><path clip-path="url(#clip770)" d="M21.7677 1091.81 L39.6235 1091.81 L39.6235 1083.73 Q39.6235 1079.24 37.3 1076.79 Q34.9765 1074.34 30.6797 1074.34 Q26.4147 1074.34 24.0912 1076.79 Q21.7677 1079.24 21.7677 1083.73 L21.7677 1091.81 M16.4842 1098.24 L16.4842 1083.73 Q16.4842 1075.74 20.1126 1071.66 Q23.7092 1067.56 30.6797 1067.56 Q37.7138 1067.56 41.3104 1071.66 Q44.907 1075.74 44.907 1083.73 L44.907 1091.81 L64.0042 1091.81 L64.0042 1098.24 L16.4842 1098.24 Z" fill="#000000" fill-rule="evenodd" fill-opacity="1" /><path clip-path="url(#clip770)" d="M33.8307 1039.68 Q33.2578 1040.66 33.0032 1041.84 Q32.7167 1042.99 32.7167 1044.39 Q32.7167 1049.35 35.9632 1052.03 Q39.1779 1054.67 45.2253 1054.67 L64.0042 1054.67 L64.0042 1060.56 L28.3562 1060.56 L28.3562 1054.67 L33.8944 1054.67 Q30.6479 1052.82 29.0883 1049.86 Q27.4968 1046.9 27.4968 1042.67 Q27.4968 1042.06 27.5923 1041.33 Q27.656 1040.6 27.8151 1039.71 L33.8307 1039.68 Z" fill="#000000" fill-rule="evenodd" fill-opacity="1" /><path clip-path="url(#clip770)" d="M32.4621 1021.15 Q32.4621 1025.86 36.1542 1028.6 Q39.8145 1031.34 46.212 1031.34 Q52.6095 1031.34 56.3017 1028.63 Q59.9619 1025.89 59.9619 1021.15 Q59.9619 1016.47 56.2698 1013.74 Q52.5777 1011 46.212 1011 Q39.8781 1011 36.186 1013.74 Q32.4621 1016.47 32.4621 1021.15 M27.4968 1021.15 Q27.4968 1013.51 32.4621 1009.15 Q37.4273 1004.79 46.212 1004.79 Q54.9649 1004.79 59.9619 1009.15 Q64.9272 1013.51 64.9272 1021.15 Q64.9272 1028.82 59.9619 1033.18 Q54.9649 1037.51 46.212 1037.51 Q37.4273 1037.51 32.4621 1033.18 Q27.4968 1028.82 27.4968 1021.15 Z" fill="#000000" fill-rule="evenodd" fill-opacity="1" /><path clip-path="url(#clip770)" d="M58.657 989.419 L77.5631 989.419 L77.5631 995.308 L28.3562 995.308 L28.3562 989.419 L33.7671 989.419 Q30.5842 987.573 29.0564 984.772 Q27.4968 981.94 27.4968 978.025 Q27.4968 971.532 32.6531 967.489 Q37.8093 963.415 46.212 963.415 Q54.6147 963.415 59.771 967.489 Q64.9272 971.532 64.9272 978.025 Q64.9272 981.94 63.3994 984.772 Q61.8398 987.573 58.657 989.419 M46.212 969.495 Q39.7508 969.495 36.0905 972.168 Q32.3984 974.81 32.3984 979.457 Q32.3984 984.104 36.0905 986.777 Q39.7508 989.419 46.212 989.419 Q52.6732 989.419 56.3653 986.777 Q60.0256 984.104 60.0256 979.457 Q60.0256 974.81 56.3653 972.168 Q52.6732 969.495 46.212 969.495 Z" fill="#000000" fill-rule="evenodd" fill-opacity="1" /><path clip-path="url(#clip770)" d="M32.4621 939.894 Q32.4621 944.605 36.1542 947.342 Q39.8145 950.079 46.212 950.079 Q52.6095 950.079 56.3017 947.374 Q59.9619 944.636 59.9619 939.894 Q59.9619 935.215 56.2698 932.478 Q52.5777 929.741 46.212 929.741 Q39.8781 929.741 36.186 932.478 Q32.4621 935.215 32.4621 939.894 M27.4968 939.894 Q27.4968 932.255 32.4621 927.895 Q37.4273 923.534 46.212 923.534 Q54.9649 923.534 59.9619 927.895 Q64.9272 932.255 64.9272 939.894 Q64.9272 947.565 59.9619 951.925 Q54.9649 956.254 46.212 956.254 Q37.4273 956.254 32.4621 951.925 Q27.4968 947.565 27.4968 939.894 Z" fill="#000000" fill-rule="evenodd" fill-opacity="1" /><path clip-path="url(#clip770)" d="M33.8307 893.17 Q33.2578 894.156 33.0032 895.334 Q32.7167 896.48 32.7167 897.88 Q32.7167 902.846 35.9632 905.519 Q39.1779 908.161 45.2253 908.161 L64.0042 908.161 L64.0042 914.049 L28.3562 914.049 L28.3562 908.161 L33.8944 908.161 Q30.6479 906.315 29.0883 903.355 Q27.4968 900.395 27.4968 896.162 Q27.4968 895.557 27.5923 894.825 Q27.656 894.093 27.8151 893.202 L33.8307 893.17 Z" fill="#000000" fill-rule="evenodd" fill-opacity="1" /><path clip-path="url(#clip770)" d="M18.2347 881.234 L28.3562 881.234 L28.3562 869.171 L32.9077 869.171 L32.9077 881.234 L52.2594 881.234 Q56.6199 881.234 57.8613 880.056 Q59.1026 878.847 59.1026 875.187 L59.1026 869.171 L64.0042 869.171 L64.0042 875.187 Q64.0042 881.966 61.4897 884.544 Q58.9434 887.122 52.2594 887.122 L32.9077 887.122 L32.9077 891.419 L28.3562 891.419 L28.3562 887.122 L18.2347 887.122 L18.2347 881.234 Z" fill="#000000" fill-rule="evenodd" fill-opacity="1" /><path clip-path="url(#clip770)" d="M28.3562 861.469 L28.3562 855.612 L64.0042 855.612 L64.0042 861.469 L28.3562 861.469 M14.479 861.469 L14.479 855.612 L21.895 855.612 L21.895 861.469 L14.479 861.469 Z" fill="#000000" fill-rule="evenodd" fill-opacity="1" /><path clip-path="url(#clip770)" d="M32.4621 829.545 Q32.4621 834.255 36.1542 836.992 Q39.8145 839.73 46.212 839.73 Q52.6095 839.73 56.3017 837.024 Q59.9619 834.287 59.9619 829.545 Q59.9619 824.866 56.2698 822.128 Q52.5777 819.391 46.212 819.391 Q39.8781 819.391 36.186 822.128 Q32.4621 824.866 32.4621 829.545 M27.4968 829.545 Q27.4968 821.906 32.4621 817.545 Q37.4273 813.185 46.212 813.185 Q54.9649 813.185 59.9619 817.545 Q64.9272 821.906 64.9272 829.545 Q64.9272 837.215 59.9619 841.576 Q54.9649 845.904 46.212 845.904 Q37.4273 845.904 32.4621 841.576 Q27.4968 837.215 27.4968 829.545 Z" fill="#000000" fill-rule="evenodd" fill-opacity="1" /><path clip-path="url(#clip770)" d="M42.4881 773.845 L64.0042 773.845 L64.0042 779.701 L42.679 779.701 Q37.6183 779.701 35.1038 781.674 Q32.5894 783.648 32.5894 787.595 Q32.5894 792.337 35.6131 795.074 Q38.6368 797.811 43.8567 797.811 L64.0042 797.811 L64.0042 803.7 L28.3562 803.7 L28.3562 797.811 L33.8944 797.811 Q30.6797 795.711 29.0883 792.878 Q27.4968 790.013 27.4968 786.29 Q27.4968 780.147 31.3163 776.996 Q35.1038 773.845 42.4881 773.845 Z" fill="#000000" fill-rule="evenodd" fill-opacity="1" /><path clip-path="url(#clip770)" d="M32.4621 727.63 Q32.4621 732.34 36.1542 735.077 Q39.8145 737.815 46.212 737.815 Q52.6095 737.815 56.3017 735.109 Q59.9619 732.372 59.9619 727.63 Q59.9619 722.951 56.2698 720.213 Q52.5777 717.476 46.212 717.476 Q39.8781 717.476 36.186 720.213 Q32.4621 722.951 32.4621 727.63 M27.4968 727.63 Q27.4968 719.991 32.4621 715.63 Q37.4273 711.27 46.212 711.27 Q54.9649 711.27 59.9619 715.63 Q64.9272 719.991 64.9272 727.63 Q64.9272 735.3 59.9619 739.661 Q54.9649 743.989 46.212 743.989 Q37.4273 743.989 32.4621 739.661 Q27.4968 735.3 27.4968 727.63 Z" fill="#000000" fill-rule="evenodd" fill-opacity="1" /><path clip-path="url(#clip770)" d="M14.479 683.515 L19.3487 683.515 L19.3487 689.117 Q19.3487 692.268 20.6219 693.509 Q21.895 694.719 25.2052 694.719 L28.3562 694.719 L28.3562 685.075 L32.9077 685.075 L32.9077 694.719 L64.0042 694.719 L64.0042 700.607 L32.9077 700.607 L32.9077 706.209 L28.3562 706.209 L28.3562 700.607 L25.8736 700.607 Q19.9216 700.607 17.2162 697.838 Q14.479 695.069 14.479 689.053 L14.479 683.515 Z" fill="#000000" fill-rule="evenodd" fill-opacity="1" /><path clip-path="url(#clip770)" d="M58.657 652.228 L77.5631 652.228 L77.5631 658.116 L28.3562 658.116 L28.3562 652.228 L33.7671 652.228 Q30.5842 650.382 29.0564 647.581 Q27.4968 644.748 27.4968 640.833 Q27.4968 634.34 32.6531 630.298 Q37.8093 626.224 46.212 626.224 Q54.6147 626.224 59.771 630.298 Q64.9272 634.34 64.9272 640.833 Q64.9272 644.748 63.3994 647.581 Q61.8398 650.382 58.657 652.228 M46.212 632.303 Q39.7508 632.303 36.0905 634.977 Q32.3984 637.618 32.3984 642.265 Q32.3984 646.912 36.0905 649.586 Q39.7508 652.228 46.212 652.228 Q52.6732 652.228 56.3653 649.586 Q60.0256 646.912 60.0256 642.265 Q60.0256 637.618 56.3653 634.977 Q52.6732 632.303 46.212 632.303 Z" fill="#000000" fill-rule="evenodd" fill-opacity="1" /><path clip-path="url(#clip770)" d="M33.8307 595.859 Q33.2578 596.846 33.0032 598.024 Q32.7167 599.17 32.7167 600.57 Q32.7167 605.535 35.9632 608.209 Q39.1779 610.851 45.2253 610.851 L64.0042 610.851 L64.0042 616.739 L28.3562 616.739 L28.3562 610.851 L33.8944 610.851 Q30.6479 609.005 29.0883 606.045 Q27.4968 603.084 27.4968 598.851 Q27.4968 598.247 27.5923 597.515 Q27.656 596.782 27.8151 595.891 L33.8307 595.859 Z" fill="#000000" fill-rule="evenodd" fill-opacity="1" /><path clip-path="url(#clip770)" d="M32.4621 577.335 Q32.4621 582.046 36.1542 584.783 Q39.8145 587.52 46.212 587.52 Q52.6095 587.52 56.3017 584.815 Q59.9619 582.078 59.9619 577.335 Q59.9619 572.656 56.2698 569.919 Q52.5777 567.182 46.212 567.182 Q39.8781 567.182 36.186 569.919 Q32.4621 572.656 32.4621 577.335 M27.4968 577.335 Q27.4968 569.696 32.4621 565.336 Q37.4273 560.975 46.212 560.975 Q54.9649 560.975 59.9619 565.336 Q64.9272 569.696 64.9272 577.335 Q64.9272 585.006 59.9619 589.366 Q54.9649 593.695 46.212 593.695 Q37.4273 593.695 32.4621 589.366 Q27.4968 585.006 27.4968 577.335 Z" fill="#000000" fill-rule="evenodd" fill-opacity="1" /><path clip-path="url(#clip770)" d="M46.212 525.678 Q39.7508 525.678 36.0905 528.351 Q32.3984 530.993 32.3984 535.64 Q32.3984 540.287 36.0905 542.96 Q39.7508 545.602 46.212 545.602 Q52.6732 545.602 56.3653 542.96 Q60.0256 540.287 60.0256 535.64 Q60.0256 530.993 56.3653 528.351 Q52.6732 525.678 46.212 525.678 M33.7671 545.602 Q30.5842 543.756 29.0564 540.955 Q27.4968 538.122 27.4968 534.208 Q27.4968 527.715 32.6531 523.672 Q37.8093 519.598 46.212 519.598 Q54.6147 519.598 59.771 523.672 Q64.9272 527.715 64.9272 534.208 Q64.9272 538.122 63.3994 540.955 Q61.8398 543.756 58.657 545.602 L64.0042 545.602 L64.0042 551.49 L14.479 551.49 L14.479 545.602 L33.7671 545.602 Z" fill="#000000" fill-rule="evenodd" fill-opacity="1" /><path clip-path="url(#clip770)" d="M14.479 509.891 L14.479 504.034 L64.0042 504.034 L64.0042 509.891 L14.479 509.891 Z" fill="#000000" fill-rule="evenodd" fill-opacity="1" /><path clip-path="url(#clip770)" d="M44.7161 461.288 L47.5806 461.288 L47.5806 488.215 Q53.6281 487.833 56.8109 484.587 Q59.9619 481.309 59.9619 475.484 Q59.9619 472.11 59.1344 468.959 Q58.3069 465.776 56.6518 462.657 L62.1899 462.657 Q63.5267 465.808 64.227 469.118 Q64.9272 472.428 64.9272 475.834 Q64.9272 484.364 59.9619 489.361 Q54.9967 494.326 46.5303 494.326 Q37.7774 494.326 32.6531 489.616 Q27.4968 484.873 27.4968 476.853 Q27.4968 469.659 32.1438 465.49 Q36.7589 461.288 44.7161 461.288 M42.9973 467.145 Q38.1912 467.208 35.3266 469.85 Q32.4621 472.46 32.4621 476.789 Q32.4621 481.69 35.2312 484.651 Q38.0002 487.579 43.0292 488.024 L42.9973 467.145 Z" fill="#000000" fill-rule="evenodd" fill-opacity="1" /><path clip-path="url(#clip770)" d="M35.1993 423.922 Q31.2526 421.726 29.3747 418.67 Q27.4968 415.614 27.4968 411.477 Q27.4968 405.907 31.4117 402.883 Q35.2948 399.859 42.4881 399.859 L64.0042 399.859 L64.0042 405.748 L42.679 405.748 Q37.5546 405.748 35.072 407.562 Q32.5894 409.376 32.5894 413.1 Q32.5894 417.651 35.6131 420.293 Q38.6368 422.935 43.8567 422.935 L64.0042 422.935 L64.0042 428.823 L42.679 428.823 Q37.5228 428.823 35.072 430.638 Q32.5894 432.452 32.5894 436.239 Q32.5894 440.727 35.6449 443.369 Q38.6686 446.011 43.8567 446.011 L64.0042 446.011 L64.0042 451.899 L28.3562 451.899 L28.3562 446.011 L33.8944 446.011 Q30.616 444.005 29.0564 441.205 Q27.4968 438.404 27.4968 434.552 Q27.4968 430.669 29.4702 427.964 Q31.4436 425.227 35.1993 423.922 Z" fill="#000000" fill-rule="evenodd" fill-opacity="1" /><path clip-path="url(#clip770)" d="M29.4065 365.453 L34.9447 365.453 Q33.6716 367.935 33.035 370.609 Q32.3984 373.282 32.3984 376.147 Q32.3984 380.508 33.7352 382.704 Q35.072 384.868 37.7456 384.868 Q39.7826 384.868 40.9603 383.308 Q42.1061 381.749 43.1565 377.038 L43.6021 375.033 Q44.9389 368.795 47.3897 366.185 Q49.8086 363.543 54.1691 363.543 Q59.1344 363.543 62.0308 367.49 Q64.9272 371.405 64.9272 378.28 Q64.9272 381.144 64.3543 384.263 Q63.8132 387.351 62.6992 390.788 L56.6518 390.788 Q58.3387 387.542 59.198 384.391 Q60.0256 381.24 60.0256 378.152 Q60.0256 374.015 58.6251 371.787 Q57.1929 369.559 54.6147 369.559 Q52.2276 369.559 50.9545 371.182 Q49.6813 372.773 48.5037 378.216 L48.0262 380.253 Q46.8804 385.696 44.5251 388.115 Q42.138 390.534 38.0002 390.534 Q32.9713 390.534 30.2341 386.969 Q27.4968 383.404 27.4968 376.847 Q27.4968 373.601 27.9743 370.736 Q28.4517 367.872 29.4065 365.453 Z" fill="#000000" fill-rule="evenodd" fill-opacity="1" /><polyline clip-path="url(#clip772)" style="stroke:#009af9; stroke-linecap:round; stroke-linejoin:round; stroke-width:4; stroke-opacity:1; fill:none" points="
  249.542,1278.11 252.823,1278.11 252.823,1262.95 252.826,1262.95 252.826,1232.64 252.83,1232.64 252.83,1217.48 256.102,1217.48 256.102,1202.32 256.114,1202.32 
  256.114,1187.16 256.115,1187.16 256.115,1172 262.673,1172 262.673,1156.85 265.965,1156.85 265.965,1141.69 269.18,1141.69 269.18,1126.53 352.246,1126.53 
  352.246,1111.37 415.326,1111.37 415.326,1096.21 466.718,1096.21 466.718,1081.05 479.319,1081.05 479.319,1065.89 499.268,1065.89 499.268,1050.74 569.288,1050.74 
  569.288,1035.58 595.807,1035.58 595.807,1020.42 660.126,1020.42 660.126,1005.26 744.37,1005.26 744.37,990.102 774.609,990.102 774.609,974.944 882.3,974.944 
  882.3,959.785 1028.72,959.785 1028.72,944.627 1041.78,944.627 1041.78,929.468 1059.92,929.468 1059.92,914.31 1123.78,914.31 1123.78,899.151 1208.28,899.151 
  1208.28,883.993 1837.21,883.993 1837.21,868.834 4073.57,868.834 4073.57,156.385 
  "/>
<polyline clip-path="url(#clip772)" style="stroke:#e26f46; stroke-linecap:round; stroke-linejoin:round; stroke-width:4; stroke-opacity:1; fill:none" points="
  249.542,1187.16 249.543,1187.16 249.543,1172 249.543,1172 249.543,1156.85 252.823,1156.85 252.823,1141.69 252.824,1141.69 252.824,1126.53 252.825,1126.53 
  252.825,1111.37 252.83,1111.37 252.83,1096.21 252.833,1096.21 252.833,1081.05 255.941,1081.05 255.941,1065.89 256.107,1065.89 256.107,1050.74 256.108,1050.74 
  256.108,1035.58 256.108,1035.58 256.108,1020.42 256.115,1020.42 256.115,1005.26 256.12,1005.26 256.12,990.102 256.121,990.102 256.121,974.944 259.386,974.944 
  259.386,959.785 262.673,959.785 262.673,944.627 265.738,944.627 265.738,929.468 272.465,929.468 272.465,914.31 281.603,914.31 281.603,899.151 301.193,899.151 
  301.193,883.993 306.751,883.993 306.751,868.834 308.591,868.834 308.591,853.676 323.249,853.676 323.249,838.517 330.051,838.517 330.051,823.359 333.477,823.359 
  333.477,808.2 336.238,808.2 336.238,793.042 336.407,793.042 336.407,777.883 361.493,777.883 361.493,762.725 371.217,762.725 371.217,747.566 374.382,747.566 
  374.382,732.408 380.766,732.408 380.766,717.249 381.677,717.249 381.677,702.091 390.085,702.091 390.085,686.932 398.014,686.932 398.014,671.774 399.092,671.774 
  399.092,656.615 414.636,656.615 414.636,641.457 417.477,641.457 417.477,626.298 427.733,626.298 427.733,611.14 441.891,611.14 441.891,595.981 457.369,595.981 
  457.369,580.823 477.762,580.823 477.762,565.664 503.664,565.664 503.664,550.506 512.594,550.506 512.594,535.347 529.233,535.347 529.233,520.189 593.518,520.189 
  593.518,505.03 620.897,505.03 620.897,489.872 639.088,489.872 639.088,474.713 746.15,474.713 746.15,459.555 1414.62,459.555 1414.62,444.397 2161.55,444.397 
  2161.55,429.238 4073.57,429.238 4073.57,156.385 
  "/>
<polyline clip-path="url(#clip772)" style="stroke:#3da44d; stroke-linecap:round; stroke-linejoin:round; stroke-width:4; stroke-opacity:1; fill:none" points="
  249.542,686.932 249.543,686.932 249.543,671.774 249.543,671.774 249.543,656.615 252.83,656.615 252.83,641.457 252.834,641.457 252.834,626.298 256.069,626.298 
  256.069,611.14 256.075,611.14 256.075,595.981 262.66,595.981 262.66,580.823 269.199,580.823 269.199,565.664 275.266,565.664 275.266,550.506 278.956,550.506 
  278.956,535.347 314.234,535.347 314.234,520.189 347.563,520.189 347.563,505.03 368.491,505.03 368.491,489.872 370.797,489.872 370.797,474.713 575.636,474.713 
  575.636,459.555 726.687,459.555 726.687,444.397 1250.52,444.397 1250.52,429.238 4073.57,429.238 4073.57,156.385 
  "/>
<path clip-path="url(#clip770)" d="
M1934.55 300.181 L2282.65 300.181 L2282.65 92.8206 L1934.55 92.8206  Z
  " fill="#ffffff" fill-rule="evenodd" fill-opacity="1"/>
<polyline clip-path="url(#clip770)" style="stroke:#000000; stroke-linecap:round; stroke-linejoin:round; stroke-width:4; stroke-opacity:1; fill:none" points="
  1934.55,300.181 2282.65,300.181 2282.65,92.8206 1934.55,92.8206 1934.55,300.181 
  "/>
<polyline clip-path="url(#clip770)" style="stroke:#009af9; stroke-linecap:round; stroke-linejoin:round; stroke-width:4; stroke-opacity:1; fill:none" points="
  1957.92,144.661 2098.13,144.661 
  "/>
<path clip-path="url(#clip770)" d="M2125.79 160.343 L2125.79 171.802 L2121.5 171.802 L2121.5 136.177 Q2121.5 125.621 2131.36 125.621 Q2141.41 125.621 2141.41 134.533 Q2141.41 140.876 2137.43 143.191 Q2143.91 145.274 2143.91 151.455 Q2143.91 162.427 2132.75 162.427 Q2127.85 162.427 2125.79 160.343 M2125.79 154.788 Q2128.35 158.792 2132.91 158.792 Q2139.58 158.792 2139.58 151.524 Q2139.58 144.996 2128.84 145.506 L2128.84 141.57 Q2137.24 141.57 2137.24 134.163 Q2137.24 129.094 2131.83 129.094 Q2125.79 129.094 2125.79 136.316 L2125.79 154.788 Z" fill="#000000" fill-rule="evenodd" fill-opacity="1" /><path clip-path="url(#clip770)" d="M2152.34 140.413 L2182.01 140.413 L2182.01 144.302 L2152.34 144.302 L2152.34 140.413 M2152.34 149.857 L2182.01 149.857 L2182.01 153.793 L2152.34 153.793 L2152.34 149.857 Z" fill="#000000" fill-rule="evenodd" fill-opacity="1" /><path clip-path="url(#clip770)" d="M2202.1 130.459 Q2198.49 130.459 2196.66 134.024 Q2194.86 137.566 2194.86 144.695 Q2194.86 151.802 2196.66 155.367 Q2198.49 158.908 2202.1 158.908 Q2205.74 158.908 2207.54 155.367 Q2209.37 151.802 2209.37 144.695 Q2209.37 137.566 2207.54 134.024 Q2205.74 130.459 2202.1 130.459 M2202.1 126.756 Q2207.91 126.756 2210.97 131.362 Q2214.05 135.945 2214.05 144.695 Q2214.05 153.422 2210.97 158.029 Q2207.91 162.612 2202.1 162.612 Q2196.29 162.612 2193.22 158.029 Q2190.16 153.422 2190.16 144.695 Q2190.16 135.945 2193.22 131.362 Q2196.29 126.756 2202.1 126.756 Z" fill="#000000" fill-rule="evenodd" fill-opacity="1" /><path clip-path="url(#clip770)" d="M2222.27 156.061 L2227.15 156.061 L2227.15 161.941 L2222.27 161.941 L2222.27 156.061 Z" fill="#000000" fill-rule="evenodd" fill-opacity="1" /><path clip-path="url(#clip770)" d="M2237.47 161.223 L2237.47 156.964 Q2239.23 157.797 2241.04 158.237 Q2242.84 158.677 2244.58 158.677 Q2249.21 158.677 2251.64 155.575 Q2254.09 152.45 2254.44 146.107 Q2253.1 148.098 2251.04 149.163 Q2248.98 150.228 2246.48 150.228 Q2241.29 150.228 2238.26 147.103 Q2235.25 143.955 2235.25 138.515 Q2235.25 133.191 2238.4 129.973 Q2241.55 126.756 2246.78 126.756 Q2252.78 126.756 2255.92 131.362 Q2259.09 135.945 2259.09 144.695 Q2259.09 152.867 2255.21 157.751 Q2251.34 162.612 2244.79 162.612 Q2243.03 162.612 2241.22 162.265 Q2239.42 161.917 2237.47 161.223 M2246.78 146.57 Q2249.93 146.57 2251.76 144.418 Q2253.61 142.265 2253.61 138.515 Q2253.61 134.788 2251.76 132.635 Q2249.93 130.459 2246.78 130.459 Q2243.63 130.459 2241.78 132.635 Q2239.95 134.788 2239.95 138.515 Q2239.95 142.265 2241.78 144.418 Q2243.63 146.57 2246.78 146.57 Z" fill="#000000" fill-rule="evenodd" fill-opacity="1" /><polyline clip-path="url(#clip770)" style="stroke:#e26f46; stroke-linecap:round; stroke-linejoin:round; stroke-width:4; stroke-opacity:1; fill:none" points="
  1957.92,196.501 2098.13,196.501 
  "/>
<path clip-path="url(#clip770)" d="M2125.79 212.183 L2125.79 223.642 L2121.5 223.642 L2121.5 188.017 Q2121.5 177.461 2131.36 177.461 Q2141.41 177.461 2141.41 186.373 Q2141.41 192.716 2137.43 195.031 Q2143.91 197.114 2143.91 203.295 Q2143.91 214.267 2132.75 214.267 Q2127.85 214.267 2125.79 212.183 M2125.79 206.628 Q2128.35 210.632 2132.91 210.632 Q2139.58 210.632 2139.58 203.364 Q2139.58 196.836 2128.84 197.346 L2128.84 193.41 Q2137.24 193.41 2137.24 186.003 Q2137.24 180.934 2131.83 180.934 Q2125.79 180.934 2125.79 188.156 L2125.79 206.628 Z" fill="#000000" fill-rule="evenodd" fill-opacity="1" /><path clip-path="url(#clip770)" d="M2152.34 192.253 L2182.01 192.253 L2182.01 196.142 L2152.34 196.142 L2152.34 192.253 M2152.34 201.697 L2182.01 201.697 L2182.01 205.633 L2152.34 205.633 L2152.34 201.697 Z" fill="#000000" fill-rule="evenodd" fill-opacity="1" /><path clip-path="url(#clip770)" d="M2202.1 182.299 Q2198.49 182.299 2196.66 185.864 Q2194.86 189.406 2194.86 196.535 Q2194.86 203.642 2196.66 207.207 Q2198.49 210.748 2202.1 210.748 Q2205.74 210.748 2207.54 207.207 Q2209.37 203.642 2209.37 196.535 Q2209.37 189.406 2207.54 185.864 Q2205.74 182.299 2202.1 182.299 M2202.1 178.596 Q2207.91 178.596 2210.97 183.202 Q2214.05 187.785 2214.05 196.535 Q2214.05 205.262 2210.97 209.869 Q2207.91 214.452 2202.1 214.452 Q2196.29 214.452 2193.22 209.869 Q2190.16 205.262 2190.16 196.535 Q2190.16 187.785 2193.22 183.202 Q2196.29 178.596 2202.1 178.596 Z" fill="#000000" fill-rule="evenodd" fill-opacity="1" /><path clip-path="url(#clip770)" d="M2222.27 207.901 L2227.15 207.901 L2227.15 213.781 L2222.27 213.781 L2222.27 207.901 Z" fill="#000000" fill-rule="evenodd" fill-opacity="1" /><path clip-path="url(#clip770)" d="M2247.34 182.299 Q2243.72 182.299 2241.9 185.864 Q2240.09 189.406 2240.09 196.535 Q2240.09 203.642 2241.9 207.207 Q2243.72 210.748 2247.34 210.748 Q2250.97 210.748 2252.78 207.207 Q2254.6 203.642 2254.6 196.535 Q2254.6 189.406 2252.78 185.864 Q2250.97 182.299 2247.34 182.299 M2247.34 178.596 Q2253.15 178.596 2256.2 183.202 Q2259.28 187.785 2259.28 196.535 Q2259.28 205.262 2256.2 209.869 Q2253.15 214.452 2247.34 214.452 Q2241.53 214.452 2238.45 209.869 Q2235.39 205.262 2235.39 196.535 Q2235.39 187.785 2238.45 183.202 Q2241.53 178.596 2247.34 178.596 Z" fill="#000000" fill-rule="evenodd" fill-opacity="1" /><polyline clip-path="url(#clip770)" style="stroke:#3da44d; stroke-linecap:round; stroke-linejoin:round; stroke-width:4; stroke-opacity:1; fill:none" points="
  1957.92,248.341 2098.13,248.341 
  "/>
<path clip-path="url(#clip770)" d="M2125.79 264.023 L2125.79 275.482 L2121.5 275.482 L2121.5 239.857 Q2121.5 229.301 2131.36 229.301 Q2141.41 229.301 2141.41 238.213 Q2141.41 244.556 2137.43 246.871 Q2143.91 248.954 2143.91 255.135 Q2143.91 266.107 2132.75 266.107 Q2127.85 266.107 2125.79 264.023 M2125.79 258.468 Q2128.35 262.472 2132.91 262.472 Q2139.58 262.472 2139.58 255.204 Q2139.58 248.676 2128.84 249.186 L2128.84 245.25 Q2137.24 245.25 2137.24 237.843 Q2137.24 232.774 2131.83 232.774 Q2125.79 232.774 2125.79 239.996 L2125.79 258.468 Z" fill="#000000" fill-rule="evenodd" fill-opacity="1" /><path clip-path="url(#clip770)" d="M2152.34 244.093 L2182.01 244.093 L2182.01 247.982 L2152.34 247.982 L2152.34 244.093 M2152.34 253.537 L2182.01 253.537 L2182.01 257.473 L2152.34 257.473 L2152.34 253.537 Z" fill="#000000" fill-rule="evenodd" fill-opacity="1" /><path clip-path="url(#clip770)" d="M2202.1 234.139 Q2198.49 234.139 2196.66 237.704 Q2194.86 241.246 2194.86 248.375 Q2194.86 255.482 2196.66 259.047 Q2198.49 262.588 2202.1 262.588 Q2205.74 262.588 2207.54 259.047 Q2209.37 255.482 2209.37 248.375 Q2209.37 241.246 2207.54 237.704 Q2205.74 234.139 2202.1 234.139 M2202.1 230.436 Q2207.91 230.436 2210.97 235.042 Q2214.05 239.625 2214.05 248.375 Q2214.05 257.102 2210.97 261.709 Q2207.91 266.292 2202.1 266.292 Q2196.29 266.292 2193.22 261.709 Q2190.16 257.102 2190.16 248.375 Q2190.16 239.625 2193.22 235.042 Q2196.29 230.436 2202.1 230.436 Z" fill="#000000" fill-rule="evenodd" fill-opacity="1" /><path clip-path="url(#clip770)" d="M2222.27 259.741 L2227.15 259.741 L2227.15 265.621 L2222.27 265.621 L2222.27 259.741 Z" fill="#000000" fill-rule="evenodd" fill-opacity="1" /><path clip-path="url(#clip770)" d="M2251.5 246.986 Q2254.86 247.704 2256.73 249.973 Q2258.63 252.241 2258.63 255.574 Q2258.63 260.69 2255.11 263.491 Q2251.59 266.292 2245.11 266.292 Q2242.94 266.292 2240.62 265.852 Q2238.33 265.435 2235.88 264.579 L2235.88 260.065 Q2237.82 261.199 2240.14 261.778 Q2242.45 262.357 2244.97 262.357 Q2249.37 262.357 2251.66 260.621 Q2253.98 258.885 2253.98 255.574 Q2253.98 252.519 2251.83 250.806 Q2249.7 249.07 2245.88 249.07 L2241.85 249.07 L2241.85 245.227 L2246.06 245.227 Q2249.51 245.227 2251.34 243.861 Q2253.17 242.473 2253.17 239.88 Q2253.17 237.218 2251.27 235.806 Q2249.4 234.371 2245.88 234.371 Q2243.96 234.371 2241.76 234.787 Q2239.56 235.204 2236.92 236.084 L2236.92 231.917 Q2239.58 231.176 2241.9 230.806 Q2244.23 230.436 2246.29 230.436 Q2251.62 230.436 2254.72 232.866 Q2257.82 235.274 2257.82 239.394 Q2257.82 242.264 2256.18 244.255 Q2254.53 246.223 2251.5 246.986 Z" fill="#000000" fill-rule="evenodd" fill-opacity="1" /></svg>
